<svg width="1280" height="720" viewBox="0 0 1280 720" fill="none" xmlns="http://www.w3.org/2000/svg">
  <defs>
    <linearGradient id="bg" x1="120" y1="30" x2="1160" y2="690" gradientUnits="userSpaceOnUse">
      <stop stop-color="#FFF8F2"/>
      <stop offset="1" stop-color="#FFECDD"/>
    </linearGradient>
  </defs>
  <rect width="1280" height="720" fill="url(#bg)"/>
  <rect x="112" y="84" width="1056" height="552" rx="28" fill="#FFFFFF" stroke="#F0D5BF" stroke-width="2"/>
  <rect x="164" y="134" width="496" height="50" rx="12" fill="#8A4B1F"/>
  <rect x="164" y="202" width="602" height="24" rx="10" fill="#D19A74"/>
  <rect x="164" y="258" width="952" height="2" fill="#F1DDCC"/>
  <rect x="164" y="296" width="296" height="30" rx="10" fill="#B86934"/>
  <rect x="164" y="346" width="850" height="16" rx="8" fill="#D7A987"/>
  <rect x="164" y="374" width="912" height="16" rx="8" fill="#D7A987"/>
  <rect x="164" y="430" width="296" height="30" rx="10" fill="#B86934"/>
  <rect x="164" y="478" width="214" height="62" rx="12" fill="#FFF0E3" stroke="#EEC9A8"/>
  <rect x="396" y="478" width="214" height="62" rx="12" fill="#FFF0E3" stroke="#EEC9A8"/>
  <rect x="628" y="478" width="214" height="62" rx="12" fill="#FFF0E3" stroke="#EEC9A8"/>
  <rect x="860" y="478" width="214" height="62" rx="12" fill="#FFF0E3" stroke="#EEC9A8"/>
  <rect x="164" y="572" width="320" height="24" rx="10" fill="#CB895D"/>
  <rect x="504" y="572" width="320" height="24" rx="10" fill="#CB895D"/>
  <rect x="844" y="572" width="272" height="24" rx="10" fill="#CB895D"/>
</svg>
